<?xml version="1.0" encoding="utf-8"?>
<!-- Generator: Adobe Illustrator 21.0.0, SVG Export Plug-In . SVG Version: 6.00 Build 0)  -->
<svg version="1.1" id="Layer_1" xmlns="http://www.w3.org/2000/svg" xmlns:xlink="http://www.w3.org/1999/xlink" x="0px" y="0px"
	 viewBox="0 0 450 87" style="enable-background:new 0 0 450 87;" xml:space="preserve">
<style type="text/css">
	.st0{fill:url(#SVGID_1_);}
	.st1{fill:url(#SVGID_2_);}
	.st2{fill:url(#SVGID_3_);}
	.st3{fill:url(#SVGID_4_);}
	.st4{fill:url(#SVGID_5_);}
	.st5{fill:url(#SVGID_6_);}
	.st6{fill:url(#SVGID_7_);}
	.st7{fill:url(#SVGID_8_);}
	.st8{fill:url(#SVGID_9_);}
	.st9{fill:url(#SVGID_10_);}
	.st10{fill:url(#SVGID_11_);}
	.st11{fill:url(#SVGID_12_);}
	.st12{fill:url(#SVGID_13_);}
	.st13{fill:url(#SVGID_14_);}
	.st14{fill:url(#SVGID_15_);}
</style>
<g>
	<linearGradient id="SVGID_1_" gradientUnits="userSpaceOnUse" x1="39.5252" y1="157" x2="39.5252" y2="-95.7153">
		<stop  offset="0" style="stop-color:#8D8E92"/>
		<stop  offset="0.8" style="stop-color:#23282D"/>
	</linearGradient>
	<path class="st0" d="M39.4,85.2H0c-0.2,0-0.2-0.5,0-0.5h10.7c0.6,0,0.8-0.1,0.8-0.5V0.9c0-0.2-0.2-0.5-0.8-0.5H0
		c-0.2,0-0.2-0.5,0-0.5h39.3c22,0,39.9,19.1,39.9,42.7C79.3,66.1,61.4,85.2,39.4,85.2z M55,4.9c-4.1-3.4-10.1-4.4-15.6-4.4H25.5
		c-0.6,0-0.8,0.2-0.8,0.5v83.3c0,0.4,0.2,0.5,0.8,0.5h13.8c5.5,0,11.5-1.1,15.6-4.4c6.9-5.7,10.5-14.4,10.5-37.6
		C65.4,22.3,61.8,10.5,55,4.9z"/>
	<linearGradient id="SVGID_2_" gradientUnits="userSpaceOnUse" x1="124.575" y1="157" x2="124.575" y2="-95.7153">
		<stop  offset="0" style="stop-color:#8D8E92"/>
		<stop  offset="0.8" style="stop-color:#23282D"/>
	</linearGradient>
	<path class="st1" d="M158.8,85.2H90c-0.2,0-0.2-0.5,0-0.5h10.8c0.5,0,0.7-0.1,0.7-0.5V0.9c0-0.2-0.2-0.5-0.7-0.5H90
		c-0.2,0-0.2-0.5,0-0.5h62.3c0.2,0,0.4,0.2,0.4,0.4v21.4c0,0.4-0.5,0.4-0.5,0c0-11.2-5.8-21.3-21-21.3h-15.6c-0.5,0-0.7,0.2-0.7,0.5
		v40.3h6.5c9.9,0,15.3-5.4,15.3-13.7c0-0.2,0.5-0.2,0.5,0v27.9c0,0.4-0.5,0.4-0.5,0c0-8.2-5.4-13.7-15.3-13.7h-6.5v42.6
		c0,0.4,0.2,0.5,0.7,0.5h16c20.2,0,27.2-11.3,27.2-23.7c0-0.2,0.5-0.2,0.5,0v23.8C159.1,85.1,159,85.2,158.8,85.2z"/>
	<linearGradient id="SVGID_3_" gradientUnits="userSpaceOnUse" x1="207.05" y1="157" x2="207.05" y2="-95.7153">
		<stop  offset="0" style="stop-color:#8D8E92"/>
		<stop  offset="0.8" style="stop-color:#23282D"/>
	</linearGradient>
	<path class="st2" d="M237.2,0.4c-0.5,0-0.7,0.2-0.7,0.5v85.9c0,0.4-0.4,0.5-0.7,0L178.2,1.1c0,0-0.8-0.7-1.3-0.7h-10.8
		c-0.2,0-0.2-0.5,0-0.5h25.6c0.8,0,1.6,0.5,2.6,2.2L235.9,64V0.9c0-0.2-0.2-0.5-0.7-0.5h-10.8c-0.2,0-0.2-0.5,0-0.5H248
		c0.2,0,0.2,0.5,0,0.5C248,0.4,237.2,0.4,237.2,0.4z"/>
	<linearGradient id="SVGID_4_" gradientUnits="userSpaceOnUse" x1="274.35" y1="157" x2="274.35" y2="-95.7153">
		<stop  offset="0" style="stop-color:#8D8E92"/>
		<stop  offset="0.8" style="stop-color:#23282D"/>
	</linearGradient>
	<path class="st3" d="M256.2,85.2c-0.2,0-0.2-0.5,0-0.5H267c0.5,0,0.7-0.1,0.7-0.5V0.9c0-0.2-0.2-0.5-0.7-0.5h-10.8
		c-0.2,0-0.2-0.5,0-0.5h36.3c0.2,0,0.2,0.5,0,0.5h-10.8c-0.6,0-0.8,0.2-0.8,0.5v83.3c0,0.4,0.2,0.5,0.8,0.5h10.8
		c0.2,0,0.2,0.5,0,0.5C292.5,85.2,256.2,85.2,256.2,85.2z"/>
	<linearGradient id="SVGID_5_" gradientUnits="userSpaceOnUse" x1="336.7099" y1="157" x2="336.7099" y2="-95.7153">
		<stop  offset="0" style="stop-color:#8D8E92"/>
		<stop  offset="0.8" style="stop-color:#23282D"/>
	</linearGradient>
	<path class="st4" d="M369.9,87c-0.2-1.4-2-3.6-5.5-3.6c-5.7,0-14,3.8-20.8,3.8c-23.2,0-40.5-20.7-40.5-44.6S319.8-2.1,343-2.1
		c6,0,12.9,3.2,18.5,3.2c3.5,0,5.9-1.6,6.1-2.9c0-0.2,0.5-0.2,0.5,0V22c0,0.2-0.5,0.2-0.5,0c0-11.9-12.5-23.7-24.7-23.7
		c-5.5,0-11.5,1.1-15.6,4.7c-6.9,5.9-10.5,18.3-10.5,39.6c0,21.2,3.6,33.7,10.5,39.6c4.1,3.5,10.7,4.7,16.2,4.7
		c15,0,26.3-11.5,26.3-27.3c0-0.2,0.5-0.2,0.5,0V87C370.4,87.1,370.1,87.1,369.9,87z"/>
	<linearGradient id="SVGID_6_" gradientUnits="userSpaceOnUse" x1="415.575" y1="157" x2="415.575" y2="-95.7153">
		<stop  offset="0" style="stop-color:#8D8E92"/>
		<stop  offset="0.8" style="stop-color:#23282D"/>
	</linearGradient>
	<path class="st5" d="M449.8,85.2H381c-0.2,0-0.2-0.5,0-0.5h10.8c0.5,0,0.7-0.1,0.7-0.5V0.9c0-0.2-0.2-0.5-0.7-0.5H381
		c-0.2,0-0.2-0.5,0-0.5h62.3c0.2,0,0.4,0.2,0.4,0.4v21.4c0,0.4-0.5,0.4-0.5,0c0-11.2-5.8-21.3-21-21.3h-15.6c-0.5,0-0.7,0.2-0.7,0.5
		v40.3h6.5c9.9,0,15.3-5.4,15.3-13.7c0-0.2,0.5-0.2,0.5,0v27.9c0,0.4-0.5,0.4-0.5,0c0-8.2-5.4-13.7-15.3-13.7h-6.5v42.6
		c0,0.4,0.2,0.5,0.7,0.5h16c20.2,0,27.2-11.3,27.2-23.7c0-0.2,0.5-0.2,0.5,0v23.8C450.2,85.1,450,85.2,449.8,85.2z"/>
	<g>
		<linearGradient id="SVGID_7_" gradientUnits="userSpaceOnUse" x1="174.6" y1="157" x2="174.6" y2="-95.7153">
			<stop  offset="0" style="stop-color:#8D8E92"/>
			<stop  offset="0.8" style="stop-color:#23282D"/>
		</linearGradient>
		<path class="st6" d="M179.4,82.1c0.1-0.1,0.2-0.2,0.3-0.3c0.1-0.2,0.1-0.4,0.1-0.6h0.3c0,0.9-0.1,1.4-0.1,1.7s0,0.8,0.1,1.7h-0.3
			c0-0.3,0-0.5-0.1-0.6c-0.1-0.2-0.2-0.3-0.3-0.3c-0.1-0.1-0.3-0.1-0.6-0.1h-8c-0.4,0-0.7,0.1-0.9,0.2c-0.2,0.2-0.3,0.4-0.3,0.8
			h-0.3c0-0.3,0-0.6,0-0.9c0-0.6-0.1-1.1-0.2-1.5h9.7C179,82.2,179.2,82.2,179.4,82.1z"/>
		<linearGradient id="SVGID_8_" gradientUnits="userSpaceOnUse" x1="174.75" y1="157" x2="174.75" y2="-95.7153">
			<stop  offset="0" style="stop-color:#8D8E92"/>
			<stop  offset="0.8" style="stop-color:#23282D"/>
		</linearGradient>
		<path class="st7" d="M169.5,77c0.1-0.1,0.2-0.2,0.3-0.3s0.3-0.1,0.4-0.1s0.3,0,0.4,0.1s0.2,0.2,0.3,0.3s0.1,0.3,0.1,0.4
			s0,0.3-0.1,0.4s-0.2,0.2-0.3,0.3c-0.1,0.1-0.3,0.1-0.4,0.1s-0.3,0-0.4-0.1c-0.1-0.1-0.2-0.2-0.3-0.3c-0.1-0.1-0.1-0.3-0.1-0.4
			S169.4,77.2,169.5,77z M179.4,76.6c0.1-0.1,0.2-0.2,0.3-0.3c0.1-0.2,0.1-0.4,0.1-0.6h0.3c0,0.9-0.1,1.4-0.1,1.7s0,0.8,0.1,1.7
			h-0.3c0-0.3,0-0.5-0.1-0.6c-0.1-0.2-0.2-0.3-0.3-0.3c-0.1-0.1-0.3-0.1-0.6-0.1h-4.4c-0.4,0-0.7,0.1-0.9,0.2
			c-0.2,0.2-0.3,0.4-0.3,0.8h-0.3c0-0.3,0-0.6,0-0.9c0-0.6-0.1-1.1-0.2-1.5h6.1C179,76.7,179.2,76.7,179.4,76.6z"/>
		<linearGradient id="SVGID_9_" gradientUnits="userSpaceOnUse" x1="174.7" y1="157" x2="174.7" y2="-95.7153">
			<stop  offset="0" style="stop-color:#8D8E92"/>
			<stop  offset="0.8" style="stop-color:#23282D"/>
		</linearGradient>
		<path class="st8" d="M171.5,72.4c-0.4,0-0.7-0.1-0.9-0.2c-0.3-0.1-0.5-0.2-0.7-0.4c-0.2-0.2-0.4-0.4-0.5-0.7s-0.2-0.6-0.2-1
			c0-0.5,0.1-0.9,0.4-1.2c0.2-0.3,0.5-0.4,0.9-0.4c0.2,0,0.4,0.1,0.5,0.2s0.2,0.3,0.2,0.5s-0.1,0.4-0.2,0.5
			c-0.1,0.1-0.3,0.2-0.5,0.2s-0.3-0.1-0.5-0.2c-0.1-0.1-0.2-0.2-0.2-0.4c-0.1,0-0.2,0.1-0.2,0.2s-0.1,0.3-0.1,0.5
			c0,0.4,0.2,0.7,0.5,0.9c0.2,0.1,0.5,0.2,0.8,0.2s1,0,1.8,0h0.4v-1.5h0.3v1.5h5.5c0.4,0,0.7-0.1,0.9-0.4s0.2-0.6,0.2-1.1h0.3
			c0,1.1-0.1,1.9-0.1,2.2c0,0.2,0,0.8,0.1,1.7h-0.3c0-0.3,0-0.5-0.1-0.6c-0.1-0.2-0.2-0.3-0.3-0.3c-0.1-0.1-0.3-0.1-0.6-0.1h-5.6
			v1.1H173v-1.1C172.3,72.5,171.8,72.5,171.5,72.4z"/>
		<linearGradient id="SVGID_10_" gradientUnits="userSpaceOnUse" x1="176.45" y1="157" x2="176.45" y2="-95.7153">
			<stop  offset="0" style="stop-color:#8D8E92"/>
			<stop  offset="0.8" style="stop-color:#23282D"/>
		</linearGradient>
		<path class="st9" d="M179.3,62.2c0.3,0.2,0.5,0.5,0.7,0.9s0.3,0.8,0.3,1.2c0,0.7-0.2,1.2-0.5,1.7s-0.7,0.9-1.3,1.1
			s-1.2,0.4-1.9,0.4c-0.8,0-1.5-0.1-2.1-0.4s-1.1-0.6-1.4-1.1c-0.3-0.5-0.5-1-0.5-1.7c0-0.8,0.3-1.5,0.8-1.9
			c0.5-0.5,1.3-0.7,2.3-0.7v4.4c0.2,0,0.5,0,0.9,0c0.6,0,1.2-0.1,1.6-0.3c0.5-0.2,0.8-0.5,1.1-0.8s0.4-0.7,0.4-1
			c0-0.9-0.5-1.6-1.4-2.1l0.1-0.3C178.7,61.8,179,62,179.3,62.2z M174.2,63.2c-0.4,0.1-0.7,0.2-0.9,0.5s-0.3,0.5-0.3,0.8
			s0.1,0.6,0.3,0.8s0.5,0.4,0.8,0.6c0.4,0.2,0.9,0.3,1.4,0.3v-3C175,63.1,174.6,63.1,174.2,63.2z"/>
		<linearGradient id="SVGID_11_" gradientUnits="userSpaceOnUse" x1="176.55" y1="157" x2="176.55" y2="-95.7153">
			<stop  offset="0" style="stop-color:#8D8E92"/>
			<stop  offset="0.8" style="stop-color:#23282D"/>
		</linearGradient>
		<path class="st10" d="M178.8,58.2c0.4-0.1,0.7-0.3,0.9-0.6s0.3-0.6,0.3-1.1c0-0.2,0-0.4-0.1-0.6c-0.1-0.2-0.2-0.3-0.4-0.5
			s-0.5-0.2-0.8-0.2s-0.5,0.1-0.7,0.2c-0.2,0.1-0.4,0.3-0.5,0.5s-0.4,0.5-0.6,0.9c-0.3,0.5-0.5,0.8-0.7,1.1
			c-0.2,0.2-0.4,0.4-0.7,0.6s-0.6,0.3-1,0.3s-0.7-0.1-1-0.3s-0.5-0.4-0.6-0.7s-0.2-0.7-0.2-1s0.1-0.6,0.2-0.9
			c0.1-0.3,0.2-0.5,0.4-0.6c0.1-0.1,0.1-0.2,0.1-0.2c0-0.2-0.2-0.3-0.6-0.3v-0.3c0.5,0,1.2,0.1,2.4,0.1v0.3
			c-0.6,0.1-1.1,0.3-1.5,0.6s-0.6,0.7-0.6,1.3c0,0.3,0.1,0.6,0.3,0.8s0.5,0.3,0.8,0.3s0.6-0.1,0.8-0.3s0.4-0.5,0.6-0.8
			c0.2-0.3,0.3-0.5,0.4-0.7c0.3-0.4,0.5-0.8,0.7-1c0.2-0.3,0.5-0.5,0.7-0.6c0.3-0.2,0.6-0.2,1-0.2s0.8,0.1,1.1,0.3s0.5,0.5,0.7,0.9
			s0.2,0.8,0.2,1.2s-0.1,0.8-0.2,1.1c-0.1,0.2-0.2,0.4-0.4,0.6l-0.1,0.1c0,0.1,0.2,0.2,0.5,0.3v0.3c-0.5,0-1.5-0.1-2.8-0.1v-0.3
			C177.9,58.5,178.4,58.4,178.8,58.2z"/>
		<linearGradient id="SVGID_12_" gradientUnits="userSpaceOnUse" x1="175.5" y1="157.0001" x2="175.5" y2="-95.7152">
			<stop  offset="0" style="stop-color:#8D8E92"/>
			<stop  offset="0.8" style="stop-color:#23282D"/>
		</linearGradient>
		<path class="st11" d="M172.9,47.3h0.3v2.1h5.4c0.4,0,0.7-0.1,0.9-0.2s0.3-0.4,0.3-0.7s-0.1-0.5-0.3-0.7s-0.6-0.4-1.1-0.5l0.1-0.3
			c1.3,0.2,1.9,0.8,1.9,1.8c0,0.3,0,0.6-0.1,0.8s-0.2,0.4-0.4,0.5c-0.2,0.2-0.5,0.3-0.8,0.4s-0.7,0.1-1.2,0.1h-4.7V52h-0.3v-1.3
			h-2.1c0-0.5-0.1-0.9-0.2-1.3h2.3L172.9,47.3L172.9,47.3z"/>
		<linearGradient id="SVGID_13_" gradientUnits="userSpaceOnUse" x1="177.85" y1="157" x2="177.85" y2="-95.7153">
			<stop  offset="0" style="stop-color:#8D8E92"/>
			<stop  offset="0.8" style="stop-color:#23282D"/>
		</linearGradient>
		<path class="st12" d="M172.9,39.8c0-0.4,0-0.8,0-1.1h0.3c0,0.2,0.1,0.4,0.3,0.5s0.4,0.3,0.7,0.4l6,2.3l1.2,0.5
			c0.5,0.2,0.8,0.4,1,0.6c0.2,0.3,0.4,0.6,0.4,1.1c0,0.3-0.1,0.5-0.2,0.7s-0.4,0.3-0.6,0.3c-0.2,0-0.4-0.1-0.5-0.2s-0.2-0.3-0.2-0.5
			s0.1-0.4,0.2-0.5c0.1-0.1,0.3-0.2,0.5-0.2c0.3,0,0.5,0.1,0.6,0.4c0,0,0,0,0-0.1c0-0.5-0.4-0.9-1.1-1.2l-1.3-0.5l-6.1,2.5
			c-0.3,0.2-0.5,0.3-0.6,0.5s-0.2,0.3-0.2,0.5H173c0.1-0.4,0.1-0.9,0.1-1.4c0-0.4,0-1-0.1-1.8h0.3c0,0.2,0,0.4,0,0.5
			s0.1,0.2,0.1,0.3c0.1,0.1,0.2,0.1,0.3,0.1c0.2,0,0.4-0.1,0.7-0.2l4.2-1.7l-4.1-1.5c-0.3-0.1-0.5-0.2-0.6-0.2
			c-0.2,0-0.4,0.1-0.5,0.2c-0.1,0.2-0.2,0.4-0.2,0.8h-0.3C172.9,40.5,172.9,40.1,172.9,39.8z"/>
		<linearGradient id="SVGID_14_" gradientUnits="userSpaceOnUse" x1="174.6" y1="157" x2="174.6" y2="-95.7153">
			<stop  offset="0" style="stop-color:#8D8E92"/>
			<stop  offset="0.8" style="stop-color:#23282D"/>
		</linearGradient>
		<path class="st13" d="M179.4,34.8c0.1-0.1,0.2-0.2,0.3-0.3c0.1-0.2,0.1-0.4,0.1-0.6h0.3c0,0.9-0.1,1.4-0.1,1.7s0,0.8,0.1,1.7h-0.3
			c0-0.3,0-0.5-0.1-0.6c-0.1-0.2-0.2-0.3-0.3-0.3c-0.1-0.1-0.3-0.1-0.6-0.1h-8c-0.4,0-0.7,0.1-0.9,0.2c-0.2,0.2-0.3,0.4-0.3,0.8
			h-0.3c0-0.3,0-0.6,0-0.9c0-0.6-0.1-1.1-0.2-1.5h9.7C179,34.9,179.2,34.9,179.4,34.8z"/>
		<linearGradient id="SVGID_15_" gradientUnits="userSpaceOnUse" x1="176.45" y1="157" x2="176.45" y2="-95.7153">
			<stop  offset="0" style="stop-color:#8D8E92"/>
			<stop  offset="0.8" style="stop-color:#23282D"/>
		</linearGradient>
		<path class="st14" d="M179.3,26.4c0.3,0.2,0.5,0.5,0.7,0.9s0.3,0.8,0.3,1.2c0,0.7-0.2,1.2-0.5,1.7s-0.7,0.9-1.3,1.1
			s-1.2,0.4-1.9,0.4c-0.8,0-1.5-0.1-2.1-0.4s-1.1-0.6-1.4-1.1c-0.3-0.5-0.5-1-0.5-1.7c0-0.8,0.3-1.5,0.8-1.9
			c0.5-0.5,1.3-0.7,2.3-0.7v4.4c0.2,0,0.5,0,0.9,0c0.6,0,1.2-0.1,1.6-0.3c0.5-0.2,0.8-0.5,1.1-0.8s0.4-0.7,0.4-1
			c0-0.9-0.5-1.6-1.4-2.1l0.1-0.3C178.7,25.9,179,26.1,179.3,26.4z M174.2,27.3c-0.4,0.1-0.7,0.2-0.9,0.5s-0.3,0.5-0.3,0.8
			s0.1,0.6,0.3,0.8s0.5,0.4,0.8,0.6c0.4,0.2,0.9,0.3,1.4,0.3v-3C175,27.2,174.6,27.2,174.2,27.3z"/>
	</g>
</g>
</svg>
